<svg width="213" height="77" viewBox="0 0 213 77" fill="none" xmlns="http://www.w3.org/2000/svg">
<path d="M21.375 26.25V34.8125C20.375 35.1458 19.4167 35.5208 18.5 35.9375C17.5833 36.3125 16.7708 36.6667 16.0625 37C15.2292 37.4167 14.4583 37.8333 13.75 38.25L11.5625 39.5625C10.9375 39.9375 10.25 40.3542 9.5 40.8125C8.75 41.2708 8.0625 41.7083 7.4375 42.125C8.14583 42.625 8.8125 43.0833 9.4375 43.5C10.1042 43.9167 10.6875 44.2917 11.1875 44.625C11.7708 45 12.3333 45.3542 12.875 45.6875C13.5417 46.1042 14.3125 46.5417 15.1875 47C16.1042 47.4583 16.9583 47.875 17.75 48.25C18.5833 48.625 19.2917 48.9583 19.875 49.25C20.4583 49.5 20.7708 49.6667 20.8125 49.75C20.8542 49.875 20.875 50.2708 20.875 50.9375C20.875 51.5208 20.875 52.3958 20.875 53.5625C20.875 54.7292 20.8542 56.375 20.8125 58.5C19.6042 57.375 18.4792 56.3542 17.4375 55.4375C16.4375 54.5208 15.5417 53.7292 14.75 53.0625C13.8333 52.3125 12.9792 51.6458 12.1875 51.0625C11.3542 50.4792 10.3542 49.75 9.1875 48.875C8.1875 48.125 6.91667 47.1667 5.375 46C3.875 44.8333 2.08333 43.4583 0 41.875C1.95833 40.4583 3.58333 39.2917 4.875 38.375C6.16667 37.4583 7.1875 36.7292 7.9375 36.1875C8.8125 35.5625 9.5 35.1042 10 34.8125C10.5417 34.4375 11.3333 33.875 12.375 33.125C13.25 32.5 14.3958 31.6458 15.8125 30.5625C17.2708 29.4375 19.125 28 21.375 26.25ZM180.062 13.75H184.75C185.083 13.75 185.438 13.7708 185.812 13.8125C186.146 13.8542 186.5 13.8958 186.875 13.9375C187.292 13.9375 187.729 13.9792 188.188 14.0625C186.188 17.5208 184.5 20.5417 183.125 23.125C181.75 25.7083 180.604 27.875 179.688 29.625C178.604 31.6667 177.708 33.3958 177 34.8125C176.25 36.3125 175.333 38.2708 174.25 40.6875C173.292 42.7708 172.062 45.4583 170.562 48.75C169.104 52.0417 167.312 56.0625 165.188 60.8125C164.854 60.8125 164.5 60.8333 164.125 60.875C163.75 60.875 163.396 60.8958 163.062 60.9375C162.646 60.9792 162.25 61 161.875 61C161.458 61 161.021 61.0417 160.562 61.125C160.146 61.2083 159.688 61.2917 159.188 61.375C158.688 61.4583 158.146 61.5833 157.562 61.75C159.812 57.4583 161.667 53.9167 163.125 51.125C164.583 48.3333 165.729 46.0625 166.562 44.3125C167.562 42.3125 168.333 40.7292 168.875 39.5625C169.75 37.6875 170.75 35.4583 171.875 32.875C172.833 30.6667 174 27.9792 175.375 24.8125C176.75 21.6042 178.312 17.9167 180.062 13.75ZM191.062 26.25C193.271 28 195.104 29.4375 196.562 30.5625C198.021 31.6458 199.188 32.5 200.062 33.125C201.104 33.875 201.896 34.4375 202.438 34.8125C202.938 35.1042 203.625 35.5625 204.5 36.1875C205.25 36.7292 206.25 37.4583 207.5 38.375C208.792 39.2917 210.438 40.4583 212.438 41.875C210.312 43.4583 208.5 44.8333 207 46C205.5 47.1667 204.25 48.125 203.25 48.875C202.083 49.75 201.083 50.4792 200.25 51.0625C199.458 51.6458 198.604 52.3125 197.688 53.0625C196.896 53.7292 195.979 54.5208 194.938 55.4375C193.896 56.3542 192.771 57.375 191.562 58.5C191.521 56.375 191.5 54.7292 191.5 53.5625C191.5 52.3958 191.5 51.5208 191.5 50.9375C191.5 50.2708 191.521 49.875 191.562 49.75C191.604 49.6667 191.917 49.5 192.5 49.25C193.125 48.9583 193.833 48.625 194.625 48.25C195.458 47.875 196.312 47.4583 197.188 47C198.104 46.5417 198.896 46.1042 199.562 45.6875C200.104 45.3542 200.667 45 201.25 44.625C201.75 44.2917 202.312 43.9167 202.938 43.5C203.562 43.0833 204.229 42.625 204.938 42.125C204.312 41.7083 203.625 41.2708 202.875 40.8125C202.167 40.3542 201.5 39.9375 200.875 39.5625L198.688 38.25C197.979 37.8333 197.208 37.4167 196.375 37C195.667 36.6667 194.833 36.3125 193.875 35.9375C192.958 35.5208 192.021 35.1458 191.062 34.8125V26.25Z" fill="#5BC3EB"/>
<path d="M25.8125 15.6875C27.0208 15.8958 28.0833 16.0417 29 16.125C29.9583 16.2083 30.75 16.2708 31.375 16.3125C32.125 16.3542 32.7708 16.375 33.3125 16.375C33.8542 16.375 34.625 16.3333 35.625 16.25C36.4583 16.1667 37.5417 16.0625 38.875 15.9375C40.25 15.8125 41.9375 15.6042 43.9375 15.3125C43.3542 15.4792 42.8125 15.9583 42.3125 16.75C41.8542 17.5 41.4375 18.3125 41.0625 19.1875C40.6042 20.2292 40.2083 21.375 39.875 22.625C39.5833 23.75 39.2083 25.2917 38.75 27.25C38.3333 29.2083 37.9167 31.3333 37.5 33.625C37.125 35.9167 36.8333 38.25 36.625 40.625C36.4167 42.9583 36.375 45.1042 36.5 47.0625C36.6667 49.0208 37.0625 50.6458 37.6875 51.9375C38.3125 53.1875 39.2708 53.8542 40.5625 53.9375C42.5208 54.1042 44.1458 54.125 45.4375 54C46.7708 53.8333 47.8542 53.6042 48.6875 53.3125C49.5208 53.0208 50.1667 52.6875 50.625 52.3125C51.0833 51.8958 51.4375 51.5 51.6875 51.125C52.3542 50.1667 53.0417 48.9375 53.75 47.4375C54.4583 45.9375 55.0833 44.5 55.625 43.125C56.2083 41.75 56.6875 40.5833 57.0625 39.625C57.4375 38.6667 57.625 38.2083 57.625 38.25C57.625 38.3333 57.6042 38.8125 57.5625 39.6875C57.5625 40.5208 57.5417 41.5417 57.5 42.75C57.5 43.9167 57.4792 45.1458 57.4375 46.4375C57.4375 47.7292 57.4167 48.8333 57.375 49.75C57.3333 50.5 57.2917 51.3333 57.25 52.25C57.2083 53.0417 57.1667 53.9792 57.125 55.0625C57.125 56.1458 57.0833 57.3333 57 58.625C55.25 58.5 53.5833 58.4167 52 58.375C50.4167 58.3333 49.0208 58.3125 47.8125 58.3125C46.3958 58.3125 45.0833 58.3333 43.875 58.375C42.5833 58.4167 41.0833 58.4792 39.375 58.5625C37.9167 58.6458 36.1042 58.75 33.9375 58.875C31.7708 58.9583 29.2708 59.0833 26.4375 59.25C26.7708 58.6667 27.0417 58.125 27.25 57.625C27.5 57.125 27.6875 56.7083 27.8125 56.375C27.9792 55.9583 28.0833 55.6042 28.125 55.3125C28.375 53.9792 28.5833 52.2917 28.75 50.25C28.9167 48.1667 29.0417 45.9583 29.125 43.625C29.25 41.2917 29.3125 38.9167 29.3125 36.5C29.3542 34.0417 29.3542 31.7708 29.3125 29.6875C29.2708 27.6042 29.1875 25.7917 29.0625 24.25C28.9792 22.7083 28.8542 21.6458 28.6875 21.0625C28.4792 20.3958 28.2292 19.7292 27.9375 19.0625C27.6875 18.4792 27.375 17.8958 27 17.3125C26.6667 16.6875 26.2708 16.1458 25.8125 15.6875ZM56.375 18.3125C59.2917 18.3958 61.7083 18.4583 63.625 18.5C65.5833 18.5 67.1667 18.5 68.375 18.5H71.6875H90.3125C90.3958 19.3333 90.4583 20.1458 90.5 20.9375C90.5833 21.6875 90.625 22.3542 90.625 22.9375C90.625 23.6458 90.6042 24.2917 90.5625 24.875C90.5208 25.4583 90.4583 26.0833 90.375 26.75C90.2917 27.3333 90.2083 27.9583 90.125 28.625C90.0417 29.2917 89.8958 29.9792 89.6875 30.6875C89.1042 28.4375 88.3125 26.7292 87.3125 25.5625C86.3542 24.3958 85.375 23.5417 84.375 23C83.2083 22.375 81.9792 22.0417 80.6875 22C78.9792 22.0833 77.6458 22.2292 76.6875 22.4375C75.7292 22.6458 74.9792 22.9375 74.4375 23.3125C73.8958 23.6875 73.4792 24.125 73.1875 24.625C72.9375 25.0833 72.6667 25.6042 72.375 26.1875C72.125 26.6875 71.8958 27.4583 71.6875 28.5C71.4792 29.375 71.2708 30.5625 71.0625 32.0625C70.8958 33.5625 70.7083 35.5 70.5 37.875C71.625 37.5417 72.5208 37.2292 73.1875 36.9375C73.8958 36.6458 74.4583 36.3958 74.875 36.1875C75.3333 35.9375 75.6667 35.7083 75.875 35.5C76.0417 35.25 76.2917 34.7917 76.625 34.125C76.875 33.5417 77.2083 32.75 77.625 31.75C78.0833 30.75 78.625 29.375 79.25 27.625C79.3333 29.5417 79.375 31.1458 79.375 32.4375C79.375 33.6875 79.3958 34.7083 79.4375 35.5C79.4375 36.4167 79.4583 37.1458 79.5 37.6875V40.0625C79.5 40.9375 79.5 42.125 79.5 43.625C79.5417 45.0833 79.6042 46.9375 79.6875 49.1875C79.1875 47.6458 78.7292 46.4375 78.3125 45.5625C77.9375 44.6458 77.6042 43.9583 77.3125 43.5C76.9792 42.9583 76.6875 42.5833 76.4375 42.375C76.1458 42.2917 75.75 42.2083 75.25 42.125C74.7917 42.0833 74.2083 42.0625 73.5 42.0625C72.8333 42.0625 71.9792 42.1667 70.9375 42.375C70.8125 44.6667 70.7917 46.5208 70.875 47.9375C71 49.3125 71.1667 50.375 71.375 51.125C71.5833 52 71.8333 52.625 72.125 53C72.5 53.375 73.25 53.6875 74.375 53.9375C75.5 54.1458 76.7708 54.2292 78.1875 54.1875C79.6458 54.1042 81.125 53.8542 82.625 53.4375C84.125 53.0208 85.4583 52.3333 86.625 51.375C87.5 50.5833 88.4375 49.5833 89.4375 48.375C90.2708 47.3333 91.1875 46.0208 92.1875 44.4375C93.2292 42.8542 94.25 40.9375 95.25 38.6875C95.0833 40.5625 94.9583 42.125 94.875 43.375C94.8333 44.5833 94.7708 45.5625 94.6875 46.3125C94.6042 47.1875 94.5417 47.8542 94.5 48.3125C94.5 48.8125 94.4375 49.5208 94.3125 50.4375C94.2292 51.2292 94.0833 52.3125 93.875 53.6875C93.7083 55.0208 93.4792 56.7292 93.1875 58.8125C91.2292 58.8542 89.375 58.8958 87.625 58.9375C85.875 58.9375 84.3333 58.9583 83 59C81.4167 59.0417 79.9583 59.0833 78.625 59.125C77.25 59.125 75.7292 59.1875 74.0625 59.3125C72.6042 59.3958 70.875 59.5208 68.875 59.6875C66.9167 59.8542 64.75 60.0833 62.375 60.375C62.5833 57.5417 62.7292 54.875 62.8125 52.375C62.9375 49.8333 63.0208 47.6042 63.0625 45.6875C63.1042 43.4375 63.1042 41.3542 63.0625 39.4375C63.2708 34.6458 63.1875 30.7708 62.8125 27.8125C62.4375 24.8542 62 22.9583 61.5 22.125C61.25 21.8333 60.8958 21.4792 60.4375 21.0625C60.0625 20.7292 59.5417 20.3333 58.875 19.875C58.2083 19.4167 57.375 18.8958 56.375 18.3125ZM137.688 15.25C137.104 16.5833 136.583 17.75 136.125 18.75C135.667 19.75 135.271 20.6042 134.938 21.3125C134.562 22.1042 134.25 22.8125 134 23.4375C133.792 23.8958 133.521 24.5208 133.188 25.3125C132.854 26.0208 132.438 26.9583 131.938 28.125C131.479 29.25 130.875 30.7083 130.125 32.5C129.75 30.9583 129.292 29.6042 128.75 28.4375C128.208 27.2708 127.625 26.25 127 25.375C126.375 24.5 125.708 23.7917 125 23.25C124.333 22.6667 123.667 22.1875 123 21.8125C121.458 20.9792 119.833 20.5208 118.125 20.4375C115.875 20.5625 114.104 20.9375 112.812 21.5625C111.562 22.1458 110.646 22.8333 110.062 23.625C109.479 24.375 109.167 25.1667 109.125 26C109.083 26.7917 109.188 27.4583 109.438 28C109.646 28.5 110.375 29.0833 111.625 29.75C112.917 30.4167 114.458 31.1875 116.25 32.0625C118.083 32.8958 120.042 33.8542 122.125 34.9375C124.208 35.9792 126.125 37.1458 127.875 38.4375C129.667 39.6875 131.167 41.0625 132.375 42.5625C133.625 44.0208 134.312 45.5833 134.438 47.25C134.562 49.375 134.542 51.2917 134.375 53C134.208 54.7083 133.625 56.1667 132.625 57.375C131.625 58.5833 130.062 59.5417 127.938 60.25C125.854 60.9583 122.958 61.3958 119.25 61.5625C115.417 61.7292 112.271 61.5208 109.812 60.9375C107.354 60.3542 105.354 59.5625 103.812 58.5625C102.312 57.5625 101.188 56.4583 100.438 55.25C99.7292 54.0417 99.2083 52.8958 98.875 51.8125C98.5417 50.6875 98.3125 49.7292 98.1875 48.9375C98.0625 48.1042 97.8542 47.6042 97.5625 47.4375C97.2292 47.2292 96.8958 47.0417 96.5625 46.875C96.2708 46.7083 95.9583 46.5625 95.625 46.4375C95.2917 46.2708 94.9583 46.125 94.625 46L112.812 43.0625C111.771 43.8958 110.958 44.6667 110.375 45.375C109.833 46.0833 109.417 46.7083 109.125 47.25C108.792 47.875 108.562 48.4583 108.438 49C108.354 49.5833 108.542 50.3125 109 51.1875C109.458 52.0625 110.083 52.9167 110.875 53.75C111.708 54.5417 112.667 55.2083 113.75 55.75C114.833 56.2917 115.958 56.5208 117.125 56.4375C118.583 56.3125 119.771 55.9583 120.688 55.375C121.604 54.75 122.292 53.9792 122.75 53.0625C123.25 52.1458 123.542 51.1458 123.625 50.0625C123.708 48.9792 123.604 47.9167 123.312 46.875C123.062 45.7917 122.646 44.7917 122.062 43.875C121.479 42.9167 120.792 42.125 120 41.5C119.292 41 118.188 40.5208 116.688 40.0625C115.229 39.6042 113.583 39.1042 111.75 38.5625C109.958 38.0208 108.104 37.3958 106.188 36.6875C104.312 35.9792 102.604 35.1042 101.062 34.0625C99.5625 33.0208 98.3542 31.7917 97.4375 30.375C96.5625 28.9583 96.2292 27.25 96.4375 25.25C96.6042 23.5417 97.1458 22.125 98.0625 21C99.0208 19.8333 100.208 18.9167 101.625 18.25C103.083 17.5417 104.688 17.0208 106.438 16.6875C108.229 16.3542 110.042 16.1667 111.875 16.125C113.75 16.0417 115.583 16.0625 117.375 16.1875C119.208 16.3125 120.854 16.4583 122.312 16.625C123.771 16.7917 125 16.9583 126 17.125C127.042 17.25 127.688 17.3333 127.938 17.375C129.021 17.4583 130.104 17.4375 131.188 17.3125C132.146 17.2292 133.188 17.0417 134.312 16.75C135.479 16.4167 136.604 15.9167 137.688 15.25Z" fill="#CBD5E1"/>
</svg>
