<svg width="123" height="121" viewBox="0 0 123 121" fill="none" xmlns="http://www.w3.org/2000/svg">
<path d="M32.0625 39.875V52.7188C30.5625 53.2188 29.125 53.7812 27.75 54.4062C26.375 54.9688 25.1562 55.5 24.0938 56C22.8438 56.625 21.6875 57.25 20.625 57.875L17.3438 59.8438C16.4062 60.4062 15.375 61.0312 14.25 61.7188C13.125 62.4062 12.0938 63.0625 11.1562 63.6875C12.2188 64.4375 13.2188 65.125 14.1562 65.75C15.1562 66.375 16.0312 66.9375 16.7812 67.4375C17.6562 68 18.5 68.5312 19.3125 69.0312C20.3125 69.6562 21.4688 70.3125 22.7812 71C24.1562 71.6875 25.4375 72.3125 26.625 72.875C27.875 73.4375 28.9375 73.9375 29.8125 74.375C30.6875 74.75 31.1562 75 31.2188 75.125C31.2812 75.3125 31.3125 75.9062 31.3125 76.9062C31.3125 77.7812 31.3125 79.0938 31.3125 80.8438C31.3125 82.5938 31.2812 85.0625 31.2188 88.25C29.4062 86.5625 27.7188 85.0312 26.1562 83.6562C24.6562 82.2812 23.3125 81.0938 22.125 80.0938C20.75 78.9688 19.4688 77.9688 18.2812 77.0938C17.0312 76.2188 15.5312 75.125 13.7812 73.8125C12.2812 72.6875 10.375 71.25 8.0625 69.5C5.8125 67.75 3.125 65.6875 0 63.3125C2.9375 61.1875 5.375 59.4375 7.3125 58.0625C9.25 56.6875 10.7812 55.5938 11.9062 54.7812C13.2188 53.8438 14.25 53.1562 15 52.7188C15.8125 52.1562 17 51.3125 18.5625 50.1875C19.875 49.25 21.5938 47.9688 23.7188 46.3438C25.9062 44.6562 28.6875 42.5 32.0625 39.875ZM70.125 21.125H77.1562C77.6562 21.125 78.1875 21.1563 78.75 21.2188C79.25 21.2812 79.7812 21.3438 80.3438 21.4062C80.9688 21.4062 81.625 21.4687 82.3125 21.5938C79.3125 26.7813 76.7812 31.3125 74.7188 35.1875C72.6562 39.0625 70.9375 42.3125 69.5625 44.9375C67.9375 48 66.5938 50.5938 65.5312 52.7188C64.4062 54.9688 63.0312 57.9062 61.4062 61.5312C59.9688 64.6562 58.125 68.6875 55.875 73.625C53.6875 78.5625 51 84.5938 47.8125 91.7188C47.3125 91.7188 46.7812 91.75 46.2188 91.8125C45.6562 91.8125 45.125 91.8438 44.625 91.9062C44 91.9688 43.4062 92 42.8438 92C42.2188 92 41.5625 92.0625 40.875 92.1875C40.25 92.3125 39.5625 92.4375 38.8125 92.5625C38.0625 92.6875 37.25 92.875 36.375 93.125C39.75 86.6875 42.5312 81.375 44.7188 77.1875C46.9062 73 48.625 69.5938 49.875 66.9688C51.375 63.9688 52.5312 61.5938 53.3438 59.8438C54.6562 57.0312 56.1562 53.6875 57.8438 49.8125C59.2812 46.5 61.0312 42.4688 63.0938 37.7188C65.1562 32.9062 67.5 27.375 70.125 21.125ZM86.625 39.875C89.9375 42.5 92.6875 44.6562 94.875 46.3438C97.0625 47.9688 98.8125 49.25 100.125 50.1875C101.688 51.3125 102.875 52.1562 103.688 52.7188C104.438 53.1562 105.469 53.8438 106.781 54.7812C107.906 55.5938 109.406 56.6875 111.281 58.0625C113.219 59.4375 115.688 61.1875 118.688 63.3125C115.5 65.6875 112.781 67.75 110.531 69.5C108.281 71.25 106.406 72.6875 104.906 73.8125C103.156 75.125 101.656 76.2188 100.406 77.0938C99.2188 77.9688 97.9375 78.9688 96.5625 80.0938C95.375 81.0938 94 82.2812 92.4375 83.6562C90.875 85.0312 89.1875 86.5625 87.375 88.25C87.3125 85.0625 87.2812 82.5938 87.2812 80.8438C87.2812 79.0938 87.2812 77.7812 87.2812 76.9062C87.2812 75.9062 87.3125 75.3125 87.375 75.125C87.4375 75 87.9062 74.75 88.7812 74.375C89.7188 73.9375 90.7812 73.4375 91.9688 72.875C93.2188 72.3125 94.5 71.6875 95.8125 71C97.1875 70.3125 98.375 69.6562 99.375 69.0312C100.188 68.5312 101.031 68 101.906 67.4375C102.656 66.9375 103.5 66.375 104.438 65.75C105.375 65.125 106.375 64.4375 107.438 63.6875C106.5 63.0625 105.469 62.4062 104.344 61.7188C103.281 61.0312 102.281 60.4062 101.344 59.8438L98.0625 57.875C97 57.25 95.8438 56.625 94.5938 56C93.5312 55.5 92.2812 54.9688 90.8438 54.4062C89.4688 53.7812 88.0625 53.2188 86.625 52.7188V39.875Z" fill="#5BC3EB"/>
</svg>
