<svg width="318" height="63" viewBox="0 0 318 63" fill="none" xmlns="http://www.w3.org/2000/svg">
<path d="M0.976 42.896C0.976 41.104 1.616 39.696 2.896 38.672C4.24 37.648 6.16 36.656 8.656 35.696L26.992 27.056C30.512 25.456 32.24 24.656 32.176 24.656L35.248 23.12C36.656 22.352 37.84 21.776 38.8 21.392C39.824 21.008 40.912 20.816 42.064 20.816C43.28 20.816 44.208 21.264 44.848 22.16C45.488 23.056 45.808 24.112 45.808 25.328C45.808 26.608 45.456 27.568 44.752 28.208C44.112 28.848 43.248 29.456 42.16 30.032C41.136 30.608 40.336 31.056 39.76 31.376L25.936 37.232L13.264 42.512C16.656 43.792 20.08 44.976 23.536 46.064C26.992 47.088 31.184 48.304 36.112 49.712C39.76 50.736 42.16 51.44 43.312 51.824C44.528 52.208 45.424 52.88 46 53.84C46.576 54.736 46.864 55.664 46.864 56.624C46.864 57.904 46.416 59.024 45.52 59.984C44.688 60.944 43.696 61.424 42.544 61.424C41.648 61.424 40.336 61.04 38.608 60.272C36.816 59.632 35.6 59.216 34.96 59.024C30.16 57.616 23.664 55.28 15.472 52.016C14.128 51.504 12.784 51.024 11.44 50.576C10.16 50.064 9.04 49.648 8.08 49.328C6.16 48.688 4.496 47.792 3.088 46.64C1.68 45.488 0.976 44.24 0.976 42.896ZM62.5893 1.04C63.8053 1.04 64.8933 1.36 65.8533 2C66.8773 2.64 67.4853 3.76 67.6773 5.36C68.4453 10.416 68.9253 15.472 69.1173 20.528C69.3733 25.52 69.5013 31.184 69.5013 37.52C69.5013 40.208 69.2773 45.104 68.8293 52.208C71.6453 52.464 73.8213 52.592 75.3573 52.592C76.4453 52.592 78.9093 52.432 82.7493 52.112C84.9893 51.792 86.9413 51.632 88.6053 51.632C90.1413 51.632 91.5493 51.792 92.8293 52.112C94.1093 52.368 95.4213 52.816 96.7653 53.456C98.1093 54.224 98.7812 55.408 98.7812 57.008C98.7812 58.288 98.3653 59.44 97.5333 60.464C96.7653 61.488 95.8373 62 94.7493 62C93.9813 62 92.7653 61.872 91.1013 61.616C88.0933 61.168 85.2133 60.944 82.4613 60.944C81.5653 60.944 80.5413 61.008 79.3893 61.136C78.3013 61.2 77.5013 61.232 76.9893 61.232C75.4533 61.424 73.9173 61.52 72.3813 61.52C69.2453 61.52 66.4293 61.36 63.9333 61.04C62.6533 60.912 61.3733 60.432 60.0933 59.6C58.8133 58.704 58.1733 57.424 58.1733 55.76C58.1733 54.8 58.3013 52.336 58.5573 48.368C59.0053 41.776 59.2293 36.752 59.2293 33.296C59.2293 30.608 59.1013 27.792 58.8453 24.848C58.5893 21.904 58.4293 20.048 58.3653 19.28C57.7893 13.84 57.5013 9.36 57.5013 5.84C57.5013 4.176 57.8853 2.96 58.6533 2.192C59.4853 1.424 60.7973 1.04 62.5893 1.04ZM145.522 48.944C146.738 48.944 147.634 49.424 148.21 50.384C148.85 51.28 149.17 52.272 149.17 53.36C149.17 54.704 148.946 55.664 148.498 56.24C148.114 56.752 147.346 57.296 146.194 57.872C143.506 59.152 140.178 60.176 136.21 60.944C132.242 61.712 127.986 62.096 123.442 62.096C117.746 62.096 113.554 61.136 110.866 59.216C108.242 57.296 106.61 54.992 105.97 52.304C105.394 49.552 105.106 45.968 105.106 41.552C105.106 36.816 105.298 32.176 105.682 27.632C106.066 23.024 106.738 17.168 107.698 10.064C108.146 6.992 109.362 4.784 111.346 3.44C113.33 2.032 115.506 1.328 117.874 1.328C119.858 1.328 123.09 1.264 127.57 1.136L135.922 1.04C139.378 1.04 141.874 1.136 143.41 1.328C145.33 1.712 146.738 2.16 147.634 2.672C148.594 3.12 149.074 3.92 149.074 5.07199C149.074 6.352 148.626 7.6 147.73 8.816C146.898 10.032 145.618 10.64 143.89 10.64C141.906 10.64 139.058 10.512 135.346 10.256C131.634 10 128.85 9.872 126.994 9.872C125.394 9.872 123.826 9.968 122.29 10.16C120.498 10.288 119.218 10.512 118.45 10.832C117.682 11.152 117.234 11.696 117.106 12.464C116.21 19.056 115.762 23.92 115.762 27.056C117.234 27.248 118.674 27.344 120.082 27.344C121.874 27.344 123.794 27.248 125.842 27.056C127.89 26.864 129.202 26.736 129.778 26.672C133.17 26.352 136.082 26.192 138.514 26.192C139.922 26.192 140.978 26.448 141.682 26.96C142.45 27.472 142.834 28.176 142.834 29.072C142.834 30.48 142.45 31.568 141.682 32.336C140.978 33.104 139.698 33.68 137.842 34.064C135.602 34.512 132.818 34.864 129.49 35.12C126.226 35.376 123.026 35.504 119.89 35.504C118.802 35.504 117.298 35.44 115.378 35.312C115.186 39.216 115.09 42.832 115.09 46.16C115.09 50.704 118.098 52.976 124.114 52.976C127.314 52.976 129.97 52.752 132.082 52.304C134.194 51.856 136.626 51.216 139.378 50.384C141.938 49.424 143.986 48.944 145.522 48.944ZM202.235 45.488C202.235 48.496 201.595 50.928 200.315 52.784C199.035 54.64 196.827 56.464 193.691 58.256C191.579 59.536 189.147 60.528 186.395 61.232C183.643 61.872 180.859 62.192 178.043 62.192C176.315 62.192 174.299 61.872 171.995 61.232C169.755 60.528 167.931 59.856 166.523 59.216L164.891 57.776C162.011 55.408 159.995 53.52 158.843 52.112C157.755 50.64 157.211 48.848 157.211 46.736C157.211 45.072 157.595 43.824 158.363 42.992C159.131 42.16 160.379 41.744 162.107 41.744C163.003 41.744 163.835 42.032 164.603 42.608C165.371 43.184 166.043 43.984 166.619 45.008C168.219 47.824 170.107 49.904 172.283 51.248C174.523 52.528 177.147 53.168 180.155 53.168C182.971 53.168 185.819 52.304 188.699 50.576C191.067 49.104 192.251 47.664 192.251 46.256C192.251 43.76 191.131 41.68 188.891 40.016C186.715 38.352 183.579 36.848 179.483 35.504C176.987 34.608 173.243 32.944 168.251 30.512C164.859 28.848 162.331 26.8 160.667 24.368C159.003 21.936 158.171 19.376 158.171 16.688C158.171 14.256 159.003 11.888 160.667 9.584C162.395 7.216 164.475 5.456 166.907 4.304C168.187 3.664 170.235 2.992 173.051 2.288C175.867 1.52 177.979 1.136 179.387 1.136C182.011 1.136 184.283 1.456 186.203 2.096C188.123 2.672 190.011 3.504 191.867 4.592C194.683 6.192 196.763 7.632 198.107 8.912C199.451 10.192 200.123 11.792 200.123 13.712C200.123 14.864 199.675 15.888 198.779 16.784C197.947 17.68 196.475 18.128 194.363 18.128C193.851 18.128 193.339 17.904 192.827 17.456C192.315 17.008 191.675 16.336 190.907 15.44C189.883 14.096 188.891 13.2 187.931 12.752C187.675 12.688 186.619 12.272 184.763 11.504C182.971 10.736 180.731 10.352 178.043 10.352C175.483 10.352 173.211 10.96 171.227 12.176C169.243 13.328 168.251 15.024 168.251 17.264C168.251 19.504 170.267 21.328 174.299 22.736C178.587 24.4 182.139 25.84 184.955 27.056C187.835 28.272 190.619 29.712 193.307 31.376C196.379 33.232 198.619 35.184 200.027 37.232C201.499 39.28 202.235 42.032 202.235 45.488ZM263.592 0.367998C264.616 0.367998 265.448 0.655998 266.088 1.232C266.728 1.744 267.048 2.384 267.048 3.152C267.048 3.856 266.888 4.49599 266.568 5.07199C264.456 8.4 262.632 11.504 261.096 14.384C259.56 17.264 257.64 21.008 255.336 25.616C254.44 27.408 253 30.256 251.016 34.16C250.056 36.016 248.68 39.056 246.888 43.28C244.264 49.168 242.12 53.648 240.456 56.72C238.472 60.56 236.2 62.48 233.64 62.48C230.376 62.48 228.744 61.328 228.744 59.024C228.744 58.128 229.032 57.296 229.608 56.528C233.064 51.472 236.008 46.576 238.44 41.84C240.936 37.04 243.624 31.44 246.504 25.04C249.768 17.744 252.52 12.048 254.76 7.952C255.848 5.776 257 3.984 258.216 2.576C259.496 1.104 261.288 0.367998 263.592 0.367998ZM317.822 42.896C317.822 44.24 317.118 45.488 315.71 46.64C314.366 47.792 312.734 48.688 310.814 49.328C310.366 49.456 307.71 50.416 302.846 52.208C294.206 55.536 287.902 57.808 283.934 59.024C282.526 59.408 281.278 59.856 280.19 60.368C278.334 61.072 277.022 61.424 276.254 61.424C275.166 61.424 274.174 60.944 273.278 59.984C272.382 58.96 271.934 57.84 271.934 56.624C271.934 55.664 272.222 54.736 272.798 53.84C273.374 52.88 274.302 52.208 275.582 51.824C276.734 51.44 279.134 50.736 282.782 49.712C287.71 48.304 291.902 47.088 295.358 46.064C298.814 44.976 302.238 43.792 305.63 42.512L292.958 37.232L279.134 31.376C278.558 31.056 277.662 30.576 276.446 29.936C275.23 29.296 274.366 28.624 273.854 27.92C273.342 27.216 273.086 26.352 273.086 25.328C273.086 24.112 273.406 23.056 274.046 22.16C274.686 21.264 275.614 20.816 276.83 20.816C277.918 20.816 278.91 21.008 279.806 21.392C280.702 21.712 282.014 22.288 283.742 23.12C285.214 23.952 286.174 24.464 286.622 24.656L310.238 35.696C312.734 36.656 314.622 37.648 315.902 38.672C317.182 39.696 317.822 41.104 317.822 42.896Z" fill="#5BC3EB"/>
</svg>
